{"glyphs":{"0":{"ha":1067,"x_min":97,"x_max":969,"o":"m 533 -14 q 349 25 429 -14 q 212 131 268 64 q 126 290 156 199 q 97 486 97 382 q 126 682 97 590 q 212 841 156 774 q 349 947 268 908 q 533 986 429 986 q 718 947 638 986 q 855 841 799 908 q 940 682 911 774 q 969 486 969 590 q 940 290 969 382 q 855 131 911 199 q 718 25 799 64 q 533 -14 638 -14 m 533 72 q 680 105 617 72 q 787 194 743 138 q 853 325 831 250 q 875 486 875 400 q 853 647 875 572 q 787 778 831 722 q 680 867 743 835 q 533 900 617 900 q 387 867 450 900 q 280 778 324 835 q 214 647 236 722 q 192 486 192 572 q 214 325 192 400 q 280 194 236 250 q 387 105 324 138 q 533 72 450 72 z "},"1":{"ha":496,"x_min":56,"x_max":357,"o":"m 265 858 l 56 672 l 56 782 l 267 972 l 357 972 l 357 0 l 265 0 l 265 858 z "},"2":{"ha":939,"x_min":83,"x_max":856,"o":"m 83 75 q 133 226 83 165 q 258 331 183 288 q 420 410 333 375 q 582 483 507 444 q 707 573 657 522 q 757 700 757 624 q 737 788 757 750 q 681 852 717 826 q 594 890 644 878 q 482 903 543 903 q 371 890 421 903 q 284 850 321 876 q 227 783 247 824 q 207 688 207 742 l 207 660 l 115 660 l 115 688 q 142 815 115 760 q 218 909 169 871 q 334 967 267 947 q 482 986 401 986 q 630 967 563 986 q 746 911 697 947 q 822 822 794 875 q 849 700 849 768 q 819 579 849 631 q 744 488 790 528 q 637 417 697 449 q 513 359 576 386 q 390 306 450 332 q 283 247 329 279 q 207 176 236 215 q 178 83 178 136 l 856 83 l 856 0 l 83 0 l 83 75 z "},"3":{"ha":928,"x_min":83,"x_max":838,"o":"m 461 -14 q 308 7 378 -14 q 189 67 239 28 q 111 165 139 107 q 83 297 83 222 l 83 322 l 175 322 l 175 297 q 196 198 175 240 q 255 127 217 156 q 346 84 293 99 q 461 69 399 69 q 576 84 524 69 q 666 126 628 99 q 725 197 704 154 q 746 294 746 239 q 725 393 746 351 q 666 462 704 435 q 576 502 628 489 q 461 515 524 515 l 231 515 l 231 606 l 660 886 l 660 889 l 119 889 l 119 972 l 799 972 l 799 882 l 369 601 l 369 599 l 461 599 q 613 579 543 599 q 732 521 682 560 q 810 426 782 482 q 838 294 838 369 q 810 164 838 221 q 732 67 782 107 q 613 7 682 28 q 461 -14 543 -14 z "},"4":{"ha":906,"x_min":35,"x_max":857,"o":"m 629 243 l 35 243 l 35 331 l 597 972 l 721 972 l 721 326 l 857 326 l 857 243 l 721 243 l 721 0 l 629 0 l 629 243 m 629 326 l 629 878 l 626 878 l 143 331 l 143 326 l 629 326 z "},"5":{"ha":954,"x_min":125,"x_max":871,"o":"m 497 -14 q 322 15 393 -14 q 206 88 250 44 q 144 181 163 131 q 125 272 125 231 l 217 272 q 230 211 217 246 q 275 145 243 176 q 361 92 307 114 q 497 69 415 69 q 612 85 560 69 q 701 133 664 101 q 758 210 738 164 q 779 315 779 256 q 758 421 779 375 q 700 498 738 467 q 610 545 663 529 q 493 561 557 561 q 358 540 410 561 q 278 493 307 518 q 226 425 243 463 l 135 425 l 135 972 l 804 972 l 804 889 l 226 889 l 226 550 l 229 550 q 290 597 253 576 q 374 630 322 615 q 501 644 426 644 q 649 622 582 644 q 766 558 717 600 q 843 454 815 515 q 871 315 871 393 q 843 176 871 238 q 766 73 815 115 q 648 8 717 31 q 497 -14 579 -14 z "},"6":{"ha":981,"x_min":104,"x_max":876,"o":"m 500 -14 q 328 19 403 -14 q 204 110 254 51 q 129 252 154 169 q 104 436 104 335 l 104 485 q 128 677 104 586 q 200 837 151 768 q 322 946 249 906 q 496 986 396 986 q 615 969 563 986 q 705 926 667 953 q 769 868 743 900 q 812 806 796 836 q 835 753 828 776 q 842 718 842 729 l 744 718 q 699 808 731 768 q 623 872 671 843 q 496 900 575 900 q 358 866 415 900 q 265 774 301 832 q 213 640 229 717 q 196 478 196 564 l 199 478 q 263 557 221 521 q 359 611 299 586 q 511 636 419 636 q 656 613 589 636 q 772 547 722 589 q 849 444 821 504 q 876 311 876 383 q 849 176 876 236 q 773 73 822 115 q 654 8 724 31 q 500 -14 585 -14 m 500 72 q 615 89 563 72 q 703 136 667 106 q 761 211 740 167 q 782 311 782 256 q 760 411 782 367 q 701 486 739 456 q 612 533 664 517 q 500 550 560 550 q 392 533 443 550 q 304 484 342 515 q 245 409 267 453 q 224 311 224 365 q 244 213 224 257 q 302 138 265 169 q 390 90 339 107 q 500 72 440 72 z "},"7":{"ha":790,"x_min":35,"x_max":749,"o":"m 656 889 l 35 889 l 35 972 l 749 972 l 749 878 l 250 0 l 153 0 l 656 889 z "},"8":{"ha":992,"x_min":104,"x_max":888,"o":"m 496 -14 q 338 6 410 -14 q 213 61 265 25 q 133 149 161 97 q 104 268 104 201 q 113 336 104 306 q 138 390 122 367 q 172 433 153 414 q 213 464 192 451 q 321 508 260 494 l 321 513 q 228 551 268 525 q 163 616 192 575 q 135 724 135 657 q 160 833 135 785 q 234 916 186 882 q 348 968 282 950 q 496 986 414 986 q 643 968 576 986 q 758 916 710 950 q 831 833 806 882 q 857 724 857 785 q 828 616 857 657 q 764 551 799 575 q 671 513 722 525 l 671 508 q 779 464 732 494 q 819 433 800 451 q 854 390 839 414 q 878 336 869 367 q 888 268 888 306 q 859 149 888 201 q 778 61 831 97 q 654 6 726 25 q 496 -14 582 -14 m 496 72 q 711 122 629 72 q 793 268 793 171 q 772 353 793 317 q 710 415 750 390 q 616 451 671 439 q 496 464 561 464 q 376 451 431 464 q 281 415 321 439 q 220 353 242 390 q 199 268 199 317 q 281 122 199 171 q 496 72 363 72 m 496 550 q 691 597 619 550 q 763 724 763 644 q 691 853 763 806 q 496 900 619 900 q 301 853 372 900 q 229 724 229 806 q 301 597 229 644 q 496 550 372 550 z "},"9":{"ha":981,"x_min":104,"x_max":876,"o":"m 478 -14 q 355 3 408 -14 q 261 46 301 19 q 193 104 221 72 q 147 166 165 136 q 122 219 129 196 q 114 254 114 243 l 211 254 q 264 163 228 203 q 345 100 294 128 q 478 72 396 72 q 619 106 561 72 q 715 198 678 140 q 768 332 751 256 q 785 494 785 408 l 782 494 q 717 415 758 450 q 621 360 681 385 q 469 336 561 336 q 325 360 392 336 q 209 426 258 383 q 132 528 160 468 q 104 661 104 588 q 131 797 104 736 q 208 899 158 857 q 326 964 257 942 q 481 986 396 986 q 652 953 578 986 q 776 862 726 921 q 851 720 826 803 q 876 536 876 638 l 876 488 q 853 295 876 386 q 780 135 829 204 q 656 26 731 67 q 478 -14 581 -14 m 481 422 q 588 440 538 422 q 676 488 639 457 q 735 563 714 519 q 757 661 757 607 q 736 759 757 715 q 678 834 715 803 q 591 883 642 865 q 481 900 540 900 q 366 883 418 900 q 277 836 314 867 q 219 761 240 806 q 199 661 199 717 q 220 561 199 606 q 279 486 242 517 q 368 439 317 456 q 481 422 419 422 z "}," ":{"ha":333,"x_min":0,"x_max":0,"o":""},"!":{"ha":369,"x_min":125,"x_max":244,"o":"m 185 -14 q 142 1 158 -14 q 125 43 125 17 q 142 85 125 69 q 185 100 158 100 q 228 85 211 100 q 244 43 244 69 q 228 1 244 17 q 185 -14 211 -14 m 139 750 l 139 972 l 231 972 l 231 750 l 217 261 l 153 261 l 139 750 z "},"\"":{"ha":483,"x_min":97,"x_max":386,"o":"m 97 861 l 97 972 l 183 972 l 183 861 l 171 569 l 110 569 l 97 861 m 300 861 l 300 972 l 386 972 l 386 861 l 375 569 l 313 569 l 300 861 z "},"#":{"ha":986,"x_min":56,"x_max":931,"o":"m 217 251 l 56 251 l 56 329 l 235 329 l 311 643 l 150 643 l 150 721 l 331 721 l 392 972 l 475 972 l 414 721 l 685 721 l 746 972 l 829 972 l 768 721 l 931 721 l 931 643 l 749 643 l 672 329 l 839 329 l 839 251 l 654 251 l 593 0 l 510 0 l 571 251 l 300 251 l 239 0 l 156 0 l 217 251 m 589 329 l 665 643 l 394 643 l 318 329 l 589 329 z "},"$":{"ha":943,"x_min":104,"x_max":839,"o":"m 424 -11 q 374 -5 406 -11 q 308 14 343 1 q 236 48 272 26 q 171 101 200 69 q 123 176 142 132 q 104 276 104 219 l 104 332 l 196 332 l 196 276 q 218 185 196 224 q 278 120 240 146 q 366 82 315 94 q 474 69 417 69 q 582 82 532 69 q 669 119 632 94 q 726 181 706 144 q 747 264 747 217 q 721 347 747 315 q 651 397 694 378 q 551 428 607 417 q 437 453 494 440 q 323 482 379 465 q 223 528 267 499 q 153 603 179 557 q 126 721 126 650 q 163 851 126 800 q 250 931 200 901 q 349 972 300 960 q 424 983 399 983 l 424 1147 l 515 1147 l 515 983 q 558 978 531 983 q 616 960 585 972 q 680 927 647 947 q 738 876 713 907 q 781 803 764 846 q 797 704 797 761 l 797 676 l 706 676 l 706 704 q 638 853 706 804 q 461 903 569 903 q 363 890 407 903 q 286 854 318 878 q 236 797 254 831 q 218 721 218 763 q 244 635 218 668 q 315 582 271 603 q 415 548 358 561 q 528 522 471 535 q 642 492 586 508 q 742 447 699 475 q 813 374 786 418 q 839 264 839 331 q 820 167 839 210 q 772 94 801 125 q 706 44 743 64 q 633 11 669 24 q 566 -6 597 -1 q 515 -11 535 -11 l 515 -175 l 424 -175 l 424 -11 z "},"%":{"ha":1143,"x_min":69,"x_max":1074,"o":"m 857 972 l 953 972 l 286 0 l 190 0 l 857 972 m 858 -14 q 702 47 760 -14 q 644 207 644 107 q 702 367 644 307 q 858 428 760 428 q 1016 367 958 428 q 1074 207 1074 307 q 1016 47 1074 107 q 858 -14 958 -14 m 858 58 q 957 100 921 58 q 993 207 993 142 q 957 314 993 272 q 858 356 921 356 q 761 314 797 356 q 725 207 725 272 q 761 100 725 142 q 858 58 797 58 m 285 544 q 127 605 185 544 q 69 765 69 665 q 127 926 69 865 q 285 986 185 986 q 441 926 383 986 q 499 765 499 865 q 441 605 499 665 q 285 544 383 544 m 285 617 q 382 658 346 617 q 418 765 418 700 q 382 872 418 831 q 285 914 346 914 q 186 872 222 914 q 150 765 150 831 q 186 658 150 700 q 285 617 222 617 z "},"&":{"ha":951,"x_min":97,"x_max":924,"o":"m 443 -14 q 294 13 358 -14 q 185 84 229 39 q 119 189 142 129 q 97 317 97 249 q 108 408 97 367 q 135 480 118 449 q 173 535 151 511 q 218 576 194 560 q 339 633 271 617 l 339 635 l 140 885 l 140 972 l 789 972 l 789 889 l 260 889 l 260 886 l 704 321 l 704 643 l 788 643 l 788 322 q 786 283 788 300 q 783 253 785 265 l 779 228 l 924 46 l 857 -14 l 739 135 l 736 135 q 674 60 714 93 q 583 9 639 32 q 443 -14 526 -14 m 443 69 q 558 91 514 69 q 631 139 603 113 q 679 210 663 169 l 397 564 q 293 524 339 553 q 221 449 253 497 q 189 317 189 400 q 206 220 189 265 q 254 142 222 175 q 334 89 286 108 q 443 69 382 69 z "},"'":{"ha":286,"x_min":103,"x_max":189,"o":"m 103 861 l 103 972 l 189 972 l 189 861 l 176 569 l 115 569 l 103 861 z "},"(":{"ha":581,"x_min":97,"x_max":567,"o":"m 567 -347 q 383 -294 468 -347 q 233 -144 297 -240 q 133 88 169 -47 q 97 389 97 224 q 133 689 97 553 q 233 922 169 825 q 383 1072 297 1018 q 567 1125 468 1125 l 567 1044 q 416 994 486 1044 q 294 854 346 943 q 213 646 243 765 q 183 389 183 526 q 213 132 183 251 q 294 -76 243 13 q 416 -216 346 -165 q 567 -267 486 -267 l 567 -347 l 567 -347 z "},")":{"ha":581,"x_min":14,"x_max":483,"o":"m 14 -267 q 165 -216 94 -267 q 286 -76 235 -165 q 367 132 338 13 q 397 389 397 251 q 367 646 397 526 q 286 854 338 765 q 165 994 235 943 q 14 1044 94 1044 l 14 1125 q 198 1072 113 1125 q 347 922 283 1018 q 447 689 411 825 q 483 389 483 553 q 447 88 483 224 q 347 -144 411 -47 q 198 -294 283 -240 q 14 -347 113 -347 l 14 -267 z "},"+":{"ha":706,"x_min":69,"x_max":636,"o":"m 313 326 l 69 326 l 69 407 l 313 407 l 313 647 l 393 647 l 393 407 l 636 407 l 636 326 l 393 326 l 393 86 l 313 86 l 313 326 z "},",":{"ha":258,"x_min":69,"x_max":189,"o":"m 122 -46 q 114 -19 122 -25 q 96 -8 106 -12 q 78 6 86 -3 q 69 43 69 15 q 85 84 69 68 q 129 100 101 100 q 172 84 156 100 q 189 31 188 68 q 167 -124 189 -68 q 122 -181 144 -181 l 122 -46 z "},"-":{"ha":418,"x_min":56,"x_max":363,"o":"m 56 326 l 363 454 l 363 363 l 56 235 l 56 326 z "},".":{"ha":258,"x_min":69,"x_max":189,"o":"m 129 -14 q 86 1 103 -14 q 69 43 69 17 q 86 85 69 69 q 129 100 103 100 q 172 85 156 100 q 189 43 189 69 q 172 1 189 17 q 129 -14 156 -14 z "},"/":{"ha":615,"x_min":0,"x_max":615,"o":"m 529 972 l 615 972 l 86 -167 l 0 -167 l 529 972 z "},":":{"ha":258,"x_min":69,"x_max":189,"o":"m 129 -14 q 86 1 103 -14 q 69 43 69 17 q 86 85 69 69 q 129 100 103 100 q 172 85 156 100 q 189 43 189 69 q 172 1 189 17 q 129 -14 156 -14 m 129 581 q 86 596 103 581 q 69 638 69 611 q 86 679 69 664 q 129 694 103 694 q 172 679 156 694 q 189 638 189 664 q 172 596 189 611 q 129 581 156 581 z "},";":{"ha":258,"x_min":69,"x_max":189,"o":"m 122 -46 q 114 -19 122 -25 q 96 -8 106 -12 q 78 6 86 -3 q 69 43 69 15 q 85 84 69 68 q 129 100 101 100 q 172 84 156 100 q 189 31 188 68 q 167 -124 189 -68 q 122 -181 144 -181 l 122 -46 m 129 581 q 86 596 103 581 q 69 638 69 611 q 86 679 69 664 q 129 694 103 694 q 172 679 156 694 q 189 638 189 664 q 172 596 189 611 q 129 581 156 581 z "},"=":{"ha":706,"x_min":69,"x_max":636,"o":"m 69 288 l 636 288 l 636 207 l 69 207 l 69 288 m 69 540 l 636 540 l 636 460 l 69 460 l 69 540 z "},"?":{"ha":836,"x_min":63,"x_max":774,"o":"m 403 -14 q 360 1 376 -14 q 343 43 343 17 q 360 85 343 69 q 403 100 376 100 q 446 85 429 100 q 463 43 463 69 q 446 1 463 17 q 403 -14 429 -14 m 404 285 q 265 324 315 285 q 215 436 215 364 q 250 537 215 501 q 336 591 285 572 q 449 619 388 610 q 561 643 510 628 q 647 685 613 658 q 682 768 682 713 q 662 823 682 799 q 606 865 642 847 q 523 893 571 883 q 418 903 475 903 q 313 892 361 903 q 230 860 265 881 q 174 808 194 839 q 154 739 154 778 l 154 700 l 63 700 l 63 739 q 90 844 63 797 q 164 922 117 890 q 276 969 211 953 q 418 986 342 986 q 560 972 494 986 q 672 928 625 957 q 747 860 719 900 q 774 768 774 819 q 739 654 774 694 q 651 592 704 614 q 538 561 599 571 q 425 538 478 551 q 338 503 372 525 q 303 436 303 482 q 332 381 303 400 q 404 363 361 363 q 472 379 444 363 q 500 433 500 396 l 500 450 l 588 450 l 588 433 q 538 322 588 360 q 404 285 489 285 z "},"@":{"ha":1356,"x_min":97,"x_max":1265,"o":"m 671 -244 q 435 -201 542 -244 q 254 -78 329 -157 q 138 113 179 1 q 97 357 97 224 q 140 603 97 492 q 259 794 182 714 q 443 919 336 875 q 681 964 550 964 q 928 919 819 964 q 1113 794 1038 875 q 1226 603 1188 714 q 1265 363 1265 493 q 1247 218 1265 276 q 1200 124 1229 160 q 1133 72 1171 88 q 1057 57 1096 57 q 967 75 1000 57 q 917 117 935 93 q 889 178 896 143 l 885 178 q 838 117 867 143 q 771 75 813 93 q 667 57 729 57 q 551 79 603 57 q 463 141 500 101 q 407 235 426 181 q 388 351 388 289 q 408 469 388 415 q 465 563 429 524 q 551 624 501 603 q 658 646 600 646 q 755 631 717 646 q 817 597 793 615 q 861 549 844 575 l 865 549 l 865 632 l 951 632 l 951 251 q 980 165 951 193 q 1057 138 1008 138 q 1122 158 1097 140 q 1158 206 1146 176 q 1175 275 1171 235 q 1179 363 1179 315 q 1147 575 1179 479 q 1050 740 1114 671 q 894 846 986 808 q 681 883 801 883 q 472 844 564 883 q 315 733 379 804 q 217 566 251 663 q 183 357 183 469 q 217 152 183 247 q 315 -13 251 57 q 468 -124 378 -83 q 671 -164 558 -164 q 772 -156 729 -164 q 844 -139 815 -149 q 904 -114 879 -128 l 936 -185 q 865 -215 906 -201 q 782 -235 831 -226 q 671 -244 733 -244 m 667 138 q 751 154 714 138 q 813 200 788 171 q 852 268 839 229 q 865 351 865 307 q 852 435 865 396 q 813 503 839 474 q 751 549 788 532 q 667 565 714 565 q 583 549 619 565 q 523 503 547 532 q 486 435 499 474 q 474 351 474 396 q 486 268 474 307 q 523 200 499 229 q 583 154 547 171 q 667 138 619 138 z "},"A":{"ha":979,"x_min":28,"x_max":951,"o":"m 426 972 l 553 972 l 951 0 l 856 0 l 760 233 l 219 233 l 124 0 l 28 0 l 426 972 m 725 317 l 492 892 l 488 892 l 254 317 l 725 317 z "},"B":{"ha":1010,"x_min":139,"x_max":913,"o":"m 139 972 l 546 972 q 776 907 696 972 q 857 715 857 842 q 835 614 857 653 q 785 551 813 575 q 714 511 753 525 l 714 507 q 813 468 768 497 q 881 396 850 443 q 913 271 913 349 q 822 67 913 135 q 556 0 731 0 l 139 0 l 139 972 m 556 83 q 750 128 682 83 q 818 271 818 174 q 756 409 818 360 q 556 458 693 458 l 231 458 l 231 83 l 556 83 m 544 542 q 703 583 644 542 q 763 715 763 624 q 704 846 763 803 q 544 889 646 889 l 231 889 l 231 542 l 544 542 z "},"C":{"ha":1129,"x_min":97,"x_max":1039,"o":"m 576 -14 q 376 24 465 -14 q 226 128 288 61 q 131 286 164 194 q 97 486 97 378 q 131 686 97 594 q 226 844 164 778 q 376 949 288 911 q 576 986 465 986 q 731 965 663 986 q 850 909 799 943 q 937 831 901 875 q 995 744 972 788 q 1028 660 1018 700 q 1039 593 1039 621 l 947 593 q 940 626 947 600 q 917 687 933 653 q 874 758 901 721 q 806 827 847 796 q 708 879 765 858 q 576 900 651 900 q 413 868 485 900 q 292 781 342 836 q 217 649 243 725 q 192 486 192 574 q 217 323 192 399 q 292 192 243 247 q 413 104 342 136 q 576 72 485 72 q 708 93 651 72 q 806 145 765 114 q 874 214 847 176 q 917 285 901 251 q 940 345 933 319 q 947 379 947 371 l 1039 379 q 1028 312 1039 351 q 995 228 1018 272 q 937 141 972 185 q 850 63 901 97 q 731 8 799 29 q 576 -14 663 -14 z "},"D":{"ha":1064,"x_min":139,"x_max":967,"o":"m 139 972 l 489 972 q 688 935 599 972 q 838 834 776 899 q 933 680 900 769 q 967 486 967 590 q 933 292 967 382 q 838 138 900 203 q 688 37 776 74 q 489 0 599 0 l 139 0 l 139 972 m 489 83 q 650 115 579 83 q 770 200 721 146 q 846 328 819 254 q 872 486 872 401 q 846 644 872 571 q 770 772 819 718 q 650 858 721 826 q 489 889 579 889 l 231 889 l 231 83 l 489 83 z "},"E":{"ha":931,"x_min":139,"x_max":840,"o":"m 139 972 l 840 972 l 840 889 l 231 889 l 231 540 l 761 540 l 761 457 l 231 457 l 231 83 l 840 83 l 840 0 l 139 0 l 139 972 z "},"F":{"ha":885,"x_min":139,"x_max":836,"o":"m 139 972 l 836 972 l 836 889 l 231 889 l 231 489 l 739 489 l 739 406 l 231 406 l 231 0 l 139 0 l 139 972 z "},"G":{"ha":1165,"x_min":97,"x_max":1040,"o":"m 569 -14 q 375 24 463 -14 q 226 128 288 61 q 131 286 164 194 q 97 486 97 378 q 131 686 97 594 q 226 844 164 778 q 376 949 288 911 q 576 986 465 986 q 712 970 651 986 q 819 928 772 954 q 900 867 865 901 q 960 799 935 833 q 1040 611 1017 715 l 944 611 q 938 633 944 611 q 917 686 932 654 q 876 756 903 718 q 809 825 850 793 q 711 878 768 857 q 576 900 654 900 q 413 868 485 900 q 292 781 342 836 q 217 649 243 725 q 192 486 192 574 q 218 323 192 399 q 293 192 244 247 q 412 104 342 136 q 569 72 482 72 q 703 94 646 72 q 801 150 760 117 q 867 224 842 183 q 908 302 893 265 q 930 367 924 339 q 936 406 936 396 l 582 406 l 582 489 l 1040 489 l 1040 0 l 951 0 l 951 211 l 947 211 q 871 99 921 147 q 755 21 828 56 q 569 -14 682 -14 z "},"H":{"ha":1072,"x_min":139,"x_max":933,"o":"m 139 972 l 231 972 l 231 546 l 842 546 l 842 972 l 933 972 l 933 0 l 842 0 l 842 463 l 231 463 l 231 0 l 139 0 l 139 972 z "},"I":{"ha":786,"x_min":83,"x_max":703,"o":"m 83 83 l 347 83 l 347 889 l 83 889 l 83 972 l 703 972 l 703 889 l 439 889 l 439 83 l 703 83 l 703 0 l 83 0 l 83 83 z "},"J":{"ha":872,"x_min":69,"x_max":747,"o":"m 408 -14 q 266 10 329 -14 q 159 78 203 35 q 92 183 115 122 q 69 317 69 244 l 69 365 l 161 365 l 161 317 q 224 138 161 204 q 408 72 286 72 q 593 138 531 72 q 656 317 656 204 l 656 889 l 213 889 l 213 972 l 747 972 l 747 317 q 724 183 747 244 q 658 78 701 122 q 551 10 614 35 q 408 -14 488 -14 z "},"K":{"ha":892,"x_min":139,"x_max":885,"o":"m 139 972 l 231 972 l 231 499 l 728 972 l 846 972 l 351 492 l 885 0 l 765 0 l 231 485 l 231 0 l 139 0 l 139 972 z "},"L":{"ha":872,"x_min":139,"x_max":844,"o":"m 139 972 l 231 972 l 231 83 l 844 83 l 844 0 l 139 0 l 139 972 z "},"M":{"ha":1244,"x_min":139,"x_max":1106,"o":"m 139 972 l 282 972 l 621 354 l 622 354 l 624 354 l 963 972 l 1106 972 l 1106 0 l 1014 0 l 1014 868 l 1010 868 l 681 272 l 564 272 l 235 868 l 231 868 l 231 0 l 139 0 l 139 972 z "},"N":{"ha":1093,"x_min":139,"x_max":954,"o":"m 139 972 l 283 972 l 860 100 l 863 100 l 863 972 l 954 972 l 954 0 l 811 0 l 233 872 l 231 872 l 231 0 l 139 0 l 139 972 z "},"O":{"ha":1150,"x_min":97,"x_max":1053,"o":"m 575 -14 q 376 24 464 -14 q 226 128 288 61 q 131 286 164 194 q 97 486 97 378 q 131 686 97 594 q 226 844 164 778 q 376 949 288 911 q 575 986 464 986 q 774 949 685 986 q 924 844 863 911 q 1019 686 986 778 q 1053 486 1053 594 q 1019 286 1053 378 q 924 128 986 194 q 774 24 863 61 q 575 -14 685 -14 m 575 72 q 735 104 664 72 q 856 192 807 136 q 932 323 906 247 q 958 486 958 399 q 932 649 958 574 q 856 781 906 725 q 735 868 807 836 q 575 900 664 900 q 414 868 485 900 q 294 781 343 836 q 218 649 244 725 q 192 486 192 574 q 218 323 192 399 q 294 192 244 247 q 414 104 343 136 q 575 72 485 72 z "},"P":{"ha":965,"x_min":139,"x_max":868,"o":"m 139 972 l 492 972 q 771 885 674 972 q 868 633 868 799 q 771 383 868 469 q 492 296 674 296 l 231 296 l 231 0 l 139 0 l 139 972 m 492 379 q 699 443 625 379 q 774 633 774 507 q 699 825 774 761 q 492 889 625 889 l 231 889 l 231 379 l 492 379 z "},"Q":{"ha":1150,"x_min":97,"x_max":1053,"o":"m 1036 -257 q 913 -247 968 -257 q 813 -219 857 -236 q 733 -181 768 -203 q 671 -136 697 -160 q 575 -14 608 -82 q 376 24 464 -14 q 226 128 288 61 q 131 286 164 194 q 97 486 97 378 q 131 686 97 594 q 226 844 164 778 q 376 949 288 911 q 575 986 464 986 q 774 949 685 986 q 924 844 863 911 q 1019 686 986 778 q 1053 486 1053 594 q 1027 310 1053 392 q 953 163 1001 228 q 837 56 906 99 q 681 -4 768 13 q 758 -87 710 -51 q 868 -145 800 -119 q 1036 -171 936 -171 l 1036 -257 m 575 72 q 735 104 664 72 q 856 192 807 136 q 932 323 906 247 q 958 486 958 399 q 932 649 958 574 q 856 781 906 725 q 735 868 807 836 q 575 900 664 900 q 414 868 485 900 q 294 781 343 836 q 218 649 244 725 q 192 486 192 574 q 218 323 192 399 q 294 192 244 247 q 414 104 343 136 q 575 72 485 72 z "},"R":{"ha":993,"x_min":139,"x_max":910,"o":"m 139 972 l 526 972 q 774 894 686 972 q 863 678 863 817 q 832 539 863 593 q 763 454 801 485 q 691 412 725 424 q 650 400 657 400 l 910 0 l 806 0 l 553 383 l 231 383 l 231 0 l 139 0 l 139 972 m 526 467 q 703 522 639 467 q 768 678 768 578 q 703 833 768 778 q 526 889 639 889 l 231 889 l 231 467 l 526 467 z "},"S":{"ha":999,"x_min":104,"x_max":894,"o":"m 499 -14 q 345 4 417 -14 q 220 59 274 22 q 135 150 167 96 q 104 276 104 204 l 104 332 l 196 332 l 196 276 q 220 182 196 221 q 285 118 244 143 q 381 81 326 93 q 499 69 436 69 q 617 81 561 69 q 713 117 672 93 q 778 177 754 140 q 803 264 803 214 q 774 350 803 318 q 697 401 744 382 q 590 429 650 419 q 466 450 529 439 q 342 476 403 461 q 235 521 282 492 q 158 598 188 550 q 129 721 129 646 q 157 833 129 783 q 233 916 185 882 q 349 968 282 950 q 493 986 415 986 q 638 969 571 986 q 753 916 704 951 q 829 828 801 881 q 857 704 857 775 l 857 676 l 765 676 l 765 704 q 744 794 765 757 q 688 856 724 832 q 601 892 651 881 q 493 903 551 903 q 385 891 435 903 q 299 856 336 879 q 242 799 263 833 q 221 721 221 765 q 250 632 221 665 q 326 578 279 599 q 434 547 374 558 q 558 524 494 535 q 681 497 621 513 q 789 453 742 482 q 865 380 836 425 q 894 264 894 335 q 863 144 894 196 q 778 57 832 92 q 653 4 725 22 q 499 -14 581 -14 z "},"T":{"ha":872,"x_min":28,"x_max":844,"o":"m 390 889 l 28 889 l 28 972 l 844 972 l 844 889 l 482 889 l 482 0 l 390 0 l 390 889 z "},"U":{"ha":1061,"x_min":125,"x_max":936,"o":"m 531 -14 q 374 6 447 -14 q 245 68 300 26 q 158 173 190 110 q 125 322 125 236 l 125 972 l 217 972 l 217 326 q 242 212 217 260 q 311 133 268 164 q 411 87 354 101 q 531 72 468 72 q 650 87 593 72 q 750 133 707 101 q 819 212 793 164 q 844 326 844 260 l 844 972 l 936 972 l 936 322 q 903 173 936 236 q 816 68 871 110 q 688 6 761 26 q 531 -14 614 -14 z "},"V":{"ha":925,"x_min":35,"x_max":890,"o":"m 35 972 l 132 972 l 460 94 l 465 94 l 793 972 l 890 972 l 528 0 l 397 0 l 35 972 z "},"W":{"ha":1403,"x_min":56,"x_max":1347,"o":"m 56 972 l 151 972 l 386 108 l 392 108 l 632 972 l 771 972 l 1011 108 l 1017 108 l 1251 972 l 1347 972 l 1083 0 l 944 0 l 703 869 l 700 869 l 458 0 l 319 0 l 56 972 z "},"X":{"ha":883,"x_min":28,"x_max":856,"o":"m 389 506 l 57 972 l 163 972 l 442 581 l 721 972 l 826 972 l 494 506 l 856 0 l 750 0 l 442 432 l 133 0 l 28 0 l 389 506 z "},"Y":{"ha":913,"x_min":28,"x_max":885,"o":"m 407 367 l 28 972 l 131 972 l 454 457 l 458 457 l 782 972 l 885 972 l 506 367 l 506 0 l 407 0 l 407 367 z "},"Z":{"ha":899,"x_min":69,"x_max":829,"o":"m 69 90 l 704 886 l 704 889 l 90 889 l 90 972 l 813 972 l 813 882 l 178 86 l 178 83 l 829 83 l 829 0 l 69 0 l 69 90 z "},"_":{"ha":610,"x_min":-28,"x_max":638,"o":"m -28 -89 l 638 -89 l 638 -169 l -28 -169 l -28 -89 z "},"a":{"ha":876,"x_min":83,"x_max":849,"o":"m 403 -14 q 280 -3 338 -14 q 178 33 222 8 q 109 94 135 57 q 83 186 83 132 q 109 277 83 239 q 178 340 135 315 q 278 377 221 365 q 397 389 335 389 q 506 378 458 389 q 586 353 553 367 q 654 318 625 338 l 654 443 q 636 519 654 486 q 588 572 618 551 q 517 603 557 593 q 433 614 476 614 q 346 603 388 614 q 273 576 304 593 q 224 534 242 558 q 206 482 206 510 l 119 482 q 140 557 121 519 q 197 625 158 594 q 293 675 235 656 q 431 694 351 694 q 548 680 492 694 q 647 634 604 665 q 715 556 689 603 q 740 443 740 508 l 740 156 q 756 86 740 106 q 807 67 771 67 q 839 71 828 67 q 849 75 844 72 l 849 0 q 835 -6 843 -3 q 793 -10 819 -10 q 726 3 751 -10 q 688 31 701 15 q 665 72 672 49 l 661 72 q 597 29 635 47 q 517 -1 565 13 q 403 -14 468 -14 m 414 67 q 518 78 474 67 q 592 105 563 90 q 638 131 622 119 q 654 144 653 143 l 654 240 q 638 253 653 242 q 592 276 622 264 q 518 299 563 289 q 414 308 474 308 q 324 302 368 308 q 247 282 281 296 q 192 244 213 268 q 172 186 172 221 q 192 128 172 151 q 247 92 213 106 q 324 72 281 78 q 414 67 368 67 z "},"b":{"ha":933,"x_min":118,"x_max":843,"o":"m 486 -14 q 358 6 410 -14 q 273 51 306 26 q 225 97 240 76 q 210 117 210 117 l 204 117 l 204 0 l 118 0 l 118 972 l 204 972 l 204 564 l 210 564 q 225 584 210 564 q 273 629 240 604 q 358 674 306 654 q 486 694 410 694 q 628 669 563 694 q 741 596 693 643 q 816 484 789 549 q 843 340 843 419 q 816 197 843 261 q 741 85 789 132 q 628 12 693 38 q 486 -14 563 -14 m 479 69 q 592 90 542 69 q 679 148 643 111 q 735 234 715 185 q 754 340 754 283 q 735 447 754 397 q 679 533 715 496 q 592 590 643 569 q 479 611 542 611 q 368 591 418 611 q 281 535 318 571 q 224 450 244 500 q 204 340 204 400 q 224 231 204 281 q 281 145 244 181 q 368 90 318 110 q 479 69 418 69 z "},"c":{"ha":890,"x_min":90,"x_max":807,"o":"m 451 -14 q 306 12 372 -14 q 192 85 240 38 q 117 197 144 132 q 90 340 90 261 q 117 484 90 419 q 192 596 144 549 q 306 669 240 643 q 451 694 372 694 q 615 662 547 694 q 724 584 682 629 q 787 492 767 539 q 807 417 807 446 l 717 417 q 703 458 717 426 q 660 524 690 490 q 578 585 629 558 q 451 611 526 611 q 339 590 389 611 q 253 533 289 569 q 199 447 218 496 q 179 340 179 397 q 199 234 179 283 q 253 148 218 185 q 339 90 289 111 q 451 69 389 69 q 578 96 526 69 q 660 156 629 122 q 703 222 690 190 q 717 264 717 253 l 807 264 q 787 188 807 235 q 724 97 767 142 q 615 19 682 51 q 451 -14 547 -14 z "},"d":{"ha":933,"x_min":90,"x_max":815,"o":"m 447 -14 q 306 12 371 -14 q 192 85 240 38 q 117 197 144 132 q 90 340 90 261 q 117 484 90 419 q 192 596 144 549 q 306 669 240 643 q 447 694 371 694 q 576 674 524 694 q 660 629 628 654 q 708 584 693 604 q 724 564 724 564 l 729 564 l 729 972 l 815 972 l 815 0 l 729 0 l 729 117 l 724 117 q 708 97 724 117 q 660 51 693 76 q 576 6 628 26 q 447 -14 524 -14 m 454 69 q 565 90 514 69 q 652 145 615 110 q 709 231 689 181 q 729 340 729 281 q 709 450 729 400 q 652 535 689 500 q 565 591 615 571 q 454 611 514 611 q 341 590 392 611 q 254 533 290 569 q 199 447 218 496 q 179 340 179 397 q 199 234 179 283 q 254 148 218 185 q 341 90 290 111 q 454 69 392 69 z "},"e":{"ha":908,"x_min":90,"x_max":818,"o":"m 457 -14 q 309 12 376 -14 q 193 85 242 38 q 117 197 144 132 q 90 340 90 261 q 117 484 90 419 q 193 596 144 549 q 308 669 242 643 q 454 694 375 694 q 600 669 533 694 q 715 596 667 643 q 791 484 764 549 q 818 340 818 419 q 817 319 818 329 q 815 303 817 310 q 814 288 814 294 l 183 288 q 195 242 183 276 q 237 168 207 207 q 320 99 267 129 q 457 69 374 69 q 560 85 518 69 q 629 121 601 101 q 681 172 661 143 l 785 172 q 714 79 760 119 q 613 15 675 43 q 457 -14 550 -14 m 728 368 q 712 443 728 401 q 663 522 696 485 q 578 585 629 560 q 454 611 526 611 q 331 585 382 611 q 246 522 279 560 q 197 443 213 485 q 181 368 181 401 l 728 368 z "},"f":{"ha":500,"x_min":35,"x_max":528,"o":"m 153 600 l 35 600 l 35 681 l 153 681 l 153 722 q 171 843 153 793 q 221 925 189 893 q 296 972 253 957 q 389 986 339 986 q 448 981 422 986 q 492 971 474 976 q 528 956 513 964 l 528 872 q 494 889 514 882 q 453 901 478 896 q 396 906 428 906 q 283 864 328 906 q 239 715 239 822 l 239 681 l 460 681 l 460 600 l 239 600 l 239 0 l 153 0 l 153 600 z "},"g":{"ha":792,"x_min":49,"x_max":757,"o":"m 382 -292 q 246 -278 307 -292 q 141 -237 185 -264 q 73 -174 97 -211 q 49 -89 49 -136 q 71 -8 49 -42 q 121 46 93 25 q 193 85 153 71 l 193 88 q 151 107 169 94 q 123 136 136 118 q 110 183 110 154 q 124 230 110 211 q 158 261 139 249 q 207 285 179 276 l 207 288 q 147 325 172 300 q 106 381 125 346 q 88 471 88 417 q 110 567 88 525 q 171 637 132 608 q 264 680 210 665 q 382 694 318 694 l 757 694 l 757 611 l 608 611 l 608 607 q 642 578 626 596 q 665 536 654 563 q 675 471 675 510 q 653 376 675 417 q 592 307 631 335 q 499 265 553 279 q 382 250 446 250 q 315 247 349 250 q 256 237 282 244 q 215 216 231 229 q 199 183 199 203 q 213 152 199 165 q 253 131 228 139 q 311 118 278 122 q 382 114 344 114 q 517 99 456 114 q 623 58 579 85 q 691 -6 667 32 q 715 -89 715 -43 q 691 -174 715 -136 q 623 -237 667 -211 q 517 -278 579 -264 q 382 -292 456 -292 m 382 -208 q 559 -176 492 -208 q 626 -89 626 -144 q 609 -40 626 -62 q 559 -3 592 -18 q 481 22 526 13 q 382 31 436 31 q 203 -3 268 31 q 138 -89 138 -36 q 204 -176 138 -144 q 382 -208 271 -208 m 382 333 q 528 367 471 333 q 586 471 586 401 q 528 576 586 542 q 382 611 471 611 q 234 576 292 611 q 176 471 176 540 q 233 367 176 401 q 382 333 290 333 z "},"h":{"ha":882,"x_min":118,"x_max":771,"o":"m 118 972 l 204 972 l 204 574 l 210 574 q 265 633 229 607 q 344 676 296 657 q 467 694 392 694 q 583 676 528 694 q 681 620 639 658 q 747 523 722 582 q 771 381 771 464 l 771 0 l 685 0 l 685 364 q 666 480 685 432 q 615 558 647 528 q 538 601 582 588 q 444 614 494 614 q 338 594 383 614 q 263 541 293 575 q 219 461 233 507 q 204 361 204 415 l 204 0 l 118 0 l 118 972 z "},"i":{"ha":322,"x_min":104,"x_max":218,"o":"m 118 681 l 204 681 l 204 0 l 118 0 l 118 681 m 161 881 q 119 895 135 881 q 104 933 104 910 q 119 972 104 957 q 161 986 135 986 q 203 972 188 986 q 218 933 218 957 q 203 895 218 910 q 161 881 188 881 z "},"j":{"ha":332,"x_min":-83,"x_max":228,"o":"m 1 -292 q -58 -285 -33 -292 q -83 -276 -72 -281 l -83 -196 q -62 -204 -74 -200 q -14 -211 -42 -211 q 44 -203 18 -211 q 88 -176 69 -196 q 117 -124 107 -157 q 128 -40 128 -92 l 128 681 l 214 681 l 214 -50 q 199 -164 214 -118 q 156 -238 183 -210 q 88 -279 128 -267 q 1 -292 49 -292 m 171 881 q 129 895 144 881 q 114 933 114 910 q 129 972 114 957 q 171 986 144 986 q 213 972 197 986 q 228 933 228 957 q 213 895 228 910 q 171 881 197 881 z "},"k":{"ha":742,"x_min":118,"x_max":742,"o":"m 118 972 l 204 972 l 204 353 l 599 681 l 714 681 l 319 350 l 742 0 l 626 0 l 204 347 l 204 0 l 118 0 l 118 972 z "},"l":{"ha":322,"x_min":118,"x_max":204,"o":"m 118 972 l 204 972 l 204 0 l 118 0 l 118 972 z "},"m":{"ha":1263,"x_min":118,"x_max":1151,"o":"m 118 681 l 204 681 l 204 581 l 208 581 q 249 638 222 613 q 313 676 272 658 q 419 694 353 694 q 521 672 481 694 q 586 624 561 650 q 632 554 615 593 l 638 554 q 686 624 654 593 q 760 672 714 650 q 878 694 806 694 q 1078 619 1004 694 q 1151 385 1151 543 l 1151 0 l 1065 0 l 1065 368 q 1015 557 1065 499 q 872 615 965 615 q 725 550 772 615 q 678 372 678 485 l 678 0 l 592 0 l 592 374 q 544 552 592 489 q 397 615 497 615 q 251 550 297 615 q 204 372 204 485 l 204 0 l 118 0 l 118 681 z "},"n":{"ha":882,"x_min":118,"x_max":771,"o":"m 118 681 l 204 681 l 204 574 l 210 574 q 265 633 229 607 q 344 676 296 657 q 467 694 392 694 q 583 676 528 694 q 681 620 639 658 q 747 523 722 582 q 771 381 771 464 l 771 0 l 685 0 l 685 364 q 666 480 685 432 q 615 558 647 528 q 538 601 582 588 q 444 614 494 614 q 338 594 383 614 q 263 541 293 575 q 219 461 233 507 q 204 361 204 415 l 204 0 l 118 0 l 118 681 z "},"o":{"ha":908,"x_min":90,"x_max":818,"o":"m 454 -14 q 308 12 375 -14 q 193 85 242 38 q 117 197 144 132 q 90 340 90 261 q 117 484 90 419 q 193 596 144 549 q 308 669 242 643 q 454 694 375 694 q 600 669 533 694 q 715 596 667 643 q 791 484 764 549 q 818 340 818 419 q 791 197 818 261 q 715 85 764 132 q 600 12 667 38 q 454 -14 533 -14 m 454 69 q 567 90 517 69 q 654 148 618 111 q 710 234 690 185 q 729 340 729 283 q 710 447 729 397 q 654 533 690 496 q 567 590 618 569 q 454 611 517 611 q 341 590 392 611 q 254 533 290 569 q 199 447 218 496 q 179 340 179 397 q 199 234 179 283 q 254 148 218 185 q 341 90 290 111 q 454 69 392 69 z "},"p":{"ha":933,"x_min":118,"x_max":843,"o":"m 118 681 l 204 681 l 204 564 l 210 564 q 225 584 210 564 q 273 629 240 604 q 358 674 306 654 q 486 694 410 694 q 628 669 563 694 q 741 596 693 643 q 816 484 789 549 q 843 340 843 419 q 816 197 843 261 q 741 85 789 132 q 628 12 693 38 q 486 -14 563 -14 q 358 6 410 -14 q 273 51 306 26 q 225 97 240 76 q 210 117 210 117 l 204 117 l 204 -278 l 118 -278 l 118 681 m 479 69 q 592 90 542 69 q 679 148 643 111 q 735 234 715 185 q 754 340 754 283 q 735 447 754 397 q 679 533 715 496 q 592 590 643 569 q 479 611 542 611 q 368 591 418 611 q 281 535 318 571 q 224 450 244 500 q 204 340 204 400 q 224 231 204 281 q 281 145 244 181 q 368 90 318 110 q 479 69 418 69 z "},"q":{"ha":933,"x_min":90,"x_max":815,"o":"m 729 117 l 724 117 q 708 97 724 117 q 660 51 693 76 q 576 6 628 26 q 447 -14 524 -14 q 306 12 371 -14 q 192 85 240 38 q 117 197 144 132 q 90 340 90 261 q 117 484 90 419 q 192 596 144 549 q 306 669 240 643 q 447 694 371 694 q 576 674 524 694 q 660 629 628 654 q 708 584 693 604 q 724 564 724 564 l 729 564 l 729 681 l 815 681 l 815 -278 l 729 -278 l 729 117 m 454 69 q 565 90 514 69 q 652 145 615 110 q 709 231 689 181 q 729 340 729 281 q 709 450 729 400 q 652 535 689 500 q 565 591 615 571 q 454 611 514 611 q 341 590 392 611 q 254 533 290 569 q 199 447 218 496 q 179 340 179 397 q 199 234 179 283 q 254 148 218 185 q 341 90 290 111 q 454 69 392 69 z "},"r":{"ha":583,"x_min":118,"x_max":549,"o":"m 118 681 l 204 681 l 204 543 l 210 543 q 264 618 229 585 q 341 670 293 646 q 464 694 389 694 q 497 692 482 694 q 524 688 513 690 q 549 682 538 685 l 549 592 q 522 599 538 594 q 492 603 510 601 q 453 606 475 606 q 344 583 390 606 q 266 522 297 560 q 219 433 235 483 q 204 328 204 382 l 204 0 l 118 0 l 118 681 z "},"s":{"ha":822,"x_min":90,"x_max":732,"o":"m 411 -14 q 289 -1 347 -14 q 187 40 231 13 q 117 112 143 68 q 90 218 90 156 l 90 244 l 176 244 l 176 218 q 240 103 176 140 q 411 67 304 67 q 581 94 515 67 q 646 190 646 122 q 623 247 646 226 q 562 280 600 268 q 475 297 524 292 q 376 309 426 303 q 278 326 326 315 q 191 356 229 336 q 130 410 153 376 q 107 497 107 443 q 130 584 107 547 q 193 646 153 621 q 288 683 233 671 q 407 694 343 694 q 526 681 471 694 q 622 641 581 668 q 685 572 663 614 q 708 471 708 529 l 622 471 q 407 614 622 614 q 246 583 299 614 q 193 497 193 553 q 233 430 193 451 q 333 399 272 408 q 463 381 393 389 q 592 356 532 374 q 692 299 653 338 q 732 190 732 261 q 706 94 732 133 q 635 31 679 56 q 533 -3 592 7 q 411 -14 475 -14 z "},"t":{"ha":583,"x_min":35,"x_max":528,"o":"m 389 -14 q 296 1 339 -14 q 221 47 253 15 q 171 126 189 78 q 153 243 153 175 l 153 600 l 35 600 l 35 681 l 153 681 l 153 833 l 239 833 l 239 681 l 500 681 l 500 600 l 239 600 l 239 253 q 283 108 239 150 q 396 67 328 67 q 453 72 428 67 q 494 83 478 76 q 528 100 514 90 l 528 18 q 492 1 513 8 q 448 -10 474 -6 q 389 -14 422 -14 z "},"u":{"ha":889,"x_min":118,"x_max":771,"o":"m 422 -14 q 306 4 361 -14 q 208 60 250 22 q 142 158 167 99 q 118 300 118 217 l 118 681 l 204 681 l 204 317 q 223 201 204 249 q 274 123 242 153 q 351 80 307 93 q 444 67 394 67 q 551 86 506 67 q 626 140 596 106 q 670 219 656 174 q 685 319 685 265 l 685 681 l 771 681 l 771 0 l 685 0 l 685 107 l 679 107 q 624 46 660 72 q 544 4 593 22 q 422 -14 496 -14 z "},"v":{"ha":756,"x_min":28,"x_max":728,"o":"m 28 681 l 117 681 l 376 67 l 379 67 l 639 681 l 728 681 l 440 0 l 315 0 l 28 681 z "},"w":{"ha":1101,"x_min":35,"x_max":1067,"o":"m 35 681 l 121 681 l 296 86 l 299 86 l 494 681 l 607 681 l 803 86 l 806 86 l 981 681 l 1067 681 l 863 0 l 749 0 l 553 593 l 549 593 l 353 0 l 239 0 l 35 681 z "},"x":{"ha":689,"x_min":7,"x_max":682,"o":"m 294 358 l 36 681 l 135 681 l 344 419 l 554 681 l 653 681 l 394 358 l 682 0 l 583 0 l 344 297 l 106 0 l 7 0 l 294 358 z "},"y":{"ha":743,"x_min":0,"x_max":743,"o":"m 167 -292 q 108 -285 132 -292 q 86 -278 96 -282 l 86 -197 q 107 -204 94 -201 q 167 -211 131 -211 q 247 -167 213 -211 q 322 -35 282 -122 l 328 -22 l 0 681 l 93 681 l 372 78 l 376 78 l 651 681 l 743 681 l 414 -35 q 359 -142 386 -94 q 303 -224 332 -190 q 240 -274 274 -257 q 167 -292 207 -292 z "},"z":{"ha":735,"x_min":56,"x_max":679,"o":"m 56 85 l 556 597 l 556 600 l 81 600 l 81 681 l 665 681 l 665 596 l 165 83 l 165 81 l 679 81 l 679 0 l 56 0 l 56 85 z "},"«":{"ha":608,"x_min":42,"x_max":553,"o":"m 42 335 l 232 592 l 326 592 l 135 335 l 326 78 l 232 78 l 42 335 m 268 335 l 458 592 l 553 592 l 361 335 l 553 78 l 458 78 l 268 335 z "},"»":{"ha":608,"x_min":56,"x_max":567,"o":"m 247 335 l 56 592 l 150 592 l 340 335 l 150 78 l 56 78 l 247 335 m 474 335 l 282 592 l 376 592 l 567 335 l 376 78 l 282 78 l 474 335 z "},"Ё":{"ha":931,"x_min":139,"x_max":840,"o":"m 139 972 l 840 972 l 840 889 l 231 889 l 231 540 l 761 540 l 761 457 l 231 457 l 231 83 l 840 83 l 840 0 l 139 0 l 139 972 m 368 1097 q 326 1112 342 1097 q 311 1150 311 1126 q 326 1188 311 1174 q 368 1203 342 1203 q 410 1188 394 1203 q 425 1150 425 1174 q 410 1112 425 1126 q 368 1097 394 1097 m 621 1097 q 579 1112 594 1097 q 564 1150 564 1126 q 579 1188 564 1174 q 621 1203 594 1203 q 663 1188 647 1203 q 678 1150 678 1174 q 663 1112 678 1126 q 621 1097 647 1097 z "},"А":{"ha":979,"x_min":28,"x_max":951,"o":"m 426 972 l 553 972 l 951 0 l 856 0 l 760 233 l 219 233 l 124 0 l 28 0 l 426 972 m 725 317 l 492 892 l 488 892 l 254 317 l 725 317 z "},"Б":{"ha":1000,"x_min":139,"x_max":910,"o":"m 139 972 l 814 972 l 814 889 l 231 889 l 231 589 l 539 589 q 816 515 722 589 q 910 294 910 442 q 816 74 910 149 q 539 0 722 0 l 139 0 l 139 972 m 539 83 q 746 135 674 83 q 818 294 818 186 q 746 454 818 403 q 539 506 674 506 l 231 506 l 231 83 l 539 83 z "},"В":{"ha":1010,"x_min":139,"x_max":913,"o":"m 139 972 l 546 972 q 776 907 696 972 q 857 715 857 842 q 835 614 857 653 q 785 551 813 575 q 714 511 753 525 l 714 507 q 813 468 768 497 q 881 396 850 443 q 913 271 913 349 q 822 67 913 135 q 556 0 731 0 l 139 0 l 139 972 m 556 83 q 750 128 682 83 q 818 271 818 174 q 756 409 818 360 q 556 458 693 458 l 231 458 l 231 83 l 556 83 m 544 542 q 703 583 644 542 q 763 715 763 624 q 704 846 763 803 q 544 889 646 889 l 231 889 l 231 542 l 544 542 z "},"Г":{"ha":844,"x_min":139,"x_max":817,"o":"m 139 972 l 817 972 l 817 889 l 231 889 l 231 0 l 139 0 l 139 972 z "},"Д":{"ha":1063,"x_min":14,"x_max":1014,"o":"m 14 83 l 69 83 q 146 134 114 83 q 192 301 178 185 l 269 972 l 874 972 l 874 83 l 1014 83 l 1014 -236 l 922 -236 l 922 0 l 106 0 l 106 -236 l 14 -236 l 14 83 m 782 83 l 782 889 l 351 889 l 283 301 q 262 185 275 228 q 236 121 249 143 q 207 86 221 96 l 207 83 l 782 83 z "},"Е":{"ha":931,"x_min":139,"x_max":840,"o":"m 139 972 l 840 972 l 840 889 l 231 889 l 231 540 l 761 540 l 761 457 l 231 457 l 231 83 l 840 83 l 840 0 l 139 0 l 139 972 z "},"Ж":{"ha":1344,"x_min":0,"x_max":1344,"o":"m 513 492 l 39 972 l 157 972 l 626 499 l 626 972 l 718 972 l 718 499 l 1188 972 l 1306 972 l 832 492 l 1344 0 l 1225 0 l 718 485 l 718 0 l 626 0 l 626 485 l 119 0 l 0 0 l 513 492 z "},"З":{"ha":956,"x_min":97,"x_max":865,"o":"m 481 -14 q 327 6 397 -14 q 206 63 257 25 q 126 155 154 100 q 97 279 97 210 l 97 328 l 190 328 l 190 279 q 212 188 190 226 q 272 122 233 149 q 363 83 310 96 q 481 69 417 69 q 598 83 544 69 q 690 123 651 97 q 751 185 729 149 q 772 269 772 222 q 701 410 772 361 q 510 460 631 458 l 369 460 l 369 543 l 507 543 q 685 594 625 543 q 744 721 744 644 q 725 794 744 761 q 670 852 706 828 q 585 890 635 876 q 472 903 535 903 q 274 853 347 903 q 201 715 201 803 l 201 683 l 108 683 l 108 715 q 135 826 108 776 q 209 912 161 876 q 324 967 257 947 q 472 986 390 986 q 622 967 554 986 q 737 912 689 947 q 811 828 785 876 q 838 721 838 779 q 813 615 838 656 q 758 550 788 574 q 681 508 724 522 l 681 503 q 772 461 732 490 q 836 390 807 436 q 865 269 865 343 q 837 152 865 204 q 757 63 808 100 q 635 6 706 26 q 481 -14 564 -14 z "},"И":{"ha":1076,"x_min":139,"x_max":938,"o":"m 139 972 l 231 972 l 231 99 l 235 99 l 800 972 l 938 972 l 938 0 l 846 0 l 846 874 l 842 874 l 276 0 l 139 0 l 139 972 z "},"Й":{"ha":1076,"x_min":139,"x_max":938,"o":"m 139 972 l 231 972 l 231 99 l 235 99 l 800 972 l 938 972 l 938 0 l 846 0 l 846 874 l 842 874 l 276 0 l 139 0 l 139 972 m 540 1092 q 375 1138 433 1092 q 317 1261 317 1183 l 317 1268 l 400 1268 l 400 1261 q 433 1197 400 1225 q 540 1168 465 1168 q 648 1197 615 1168 q 681 1261 681 1225 l 681 1268 l 764 1268 l 764 1261 q 706 1138 764 1183 q 540 1092 647 1092 z "},"К":{"ha":892,"x_min":139,"x_max":885,"o":"m 139 972 l 231 972 l 231 499 l 728 972 l 846 972 l 351 492 l 885 0 l 765 0 l 231 485 l 231 0 l 139 0 l 139 972 z "},"Л":{"ha":1028,"x_min":14,"x_max":889,"o":"m 65 -14 q 29 -10 43 -14 q 14 -6 21 -8 l 14 81 q 26 78 19 79 q 41 76 33 76 q 57 75 49 75 q 122 98 97 75 q 163 156 147 121 q 185 236 178 192 q 199 322 193 281 l 286 972 l 889 972 l 889 0 l 797 0 l 797 889 l 369 889 l 293 322 q 267 177 282 240 q 226 72 251 114 q 162 8 200 29 q 65 -14 124 -14 z "},"М":{"ha":1244,"x_min":139,"x_max":1106,"o":"m 139 972 l 282 972 l 621 354 l 622 354 l 624 354 l 963 972 l 1106 972 l 1106 0 l 1014 0 l 1014 868 l 1010 868 l 681 272 l 564 272 l 235 868 l 231 868 l 231 0 l 139 0 l 139 972 z "},"Н":{"ha":1072,"x_min":139,"x_max":933,"o":"m 139 972 l 231 972 l 231 546 l 842 546 l 842 972 l 933 972 l 933 0 l 842 0 l 842 463 l 231 463 l 231 0 l 139 0 l 139 972 z "},"О":{"ha":1150,"x_min":97,"x_max":1053,"o":"m 575 -14 q 376 24 464 -14 q 226 128 288 61 q 131 286 164 194 q 97 486 97 378 q 131 686 97 594 q 226 844 164 778 q 376 949 288 911 q 575 986 464 986 q 774 949 685 986 q 924 844 863 911 q 1019 686 986 778 q 1053 486 1053 594 q 1019 286 1053 378 q 924 128 986 194 q 774 24 863 61 q 575 -14 685 -14 m 575 72 q 735 104 664 72 q 856 192 807 136 q 932 323 906 247 q 958 486 958 399 q 932 649 958 574 q 856 781 906 725 q 735 868 807 836 q 575 900 664 900 q 414 868 485 900 q 294 781 343 836 q 218 649 244 725 q 192 486 192 574 q 218 323 192 399 q 294 192 244 247 q 414 104 343 136 q 575 72 485 72 z "},"П":{"ha":1064,"x_min":139,"x_max":925,"o":"m 139 972 l 925 972 l 925 0 l 833 0 l 833 889 l 231 889 l 231 0 l 139 0 l 139 972 z "},"Р":{"ha":965,"x_min":139,"x_max":868,"o":"m 139 972 l 492 972 q 771 885 674 972 q 868 633 868 799 q 771 383 868 469 q 492 296 674 296 l 231 296 l 231 0 l 139 0 l 139 972 m 492 379 q 699 443 625 379 q 774 633 774 507 q 699 825 774 761 q 492 889 625 889 l 231 889 l 231 379 l 492 379 z "},"С":{"ha":1129,"x_min":97,"x_max":1039,"o":"m 576 -14 q 376 24 465 -14 q 226 128 288 61 q 131 286 164 194 q 97 486 97 378 q 131 686 97 594 q 226 844 164 778 q 376 949 288 911 q 576 986 465 986 q 731 965 663 986 q 850 909 799 943 q 937 831 901 875 q 995 744 972 788 q 1028 660 1018 700 q 1039 593 1039 621 l 947 593 q 940 626 947 600 q 917 687 933 653 q 874 758 901 721 q 806 827 847 796 q 708 879 765 858 q 576 900 651 900 q 413 868 485 900 q 292 781 342 836 q 217 649 243 725 q 192 486 192 574 q 217 323 192 399 q 292 192 243 247 q 413 104 342 136 q 576 72 485 72 q 708 93 651 72 q 806 145 765 114 q 874 214 847 176 q 917 285 901 251 q 940 345 933 319 q 947 379 947 371 l 1039 379 q 1028 312 1039 351 q 995 228 1018 272 q 937 141 972 185 q 850 63 901 97 q 731 8 799 29 q 576 -14 663 -14 z "},"Т":{"ha":872,"x_min":28,"x_max":844,"o":"m 390 889 l 28 889 l 28 972 l 844 972 l 844 889 l 482 889 l 482 0 l 390 0 l 390 889 z "},"У":{"ha":906,"x_min":21,"x_max":892,"o":"m 158 83 l 222 83 q 274 90 251 83 q 315 113 296 97 q 352 152 335 128 q 389 213 369 176 l 414 258 l 21 972 l 122 972 l 463 354 l 467 354 l 789 972 l 892 972 l 492 213 q 442 125 467 164 q 389 58 418 86 q 322 15 360 31 q 233 0 285 0 l 158 0 l 158 83 z "},"Ф":{"ha":1289,"x_min":90,"x_max":1199,"o":"m 599 83 q 392 109 486 85 q 231 183 299 133 q 127 307 164 232 q 90 486 90 382 q 127 665 90 590 q 231 790 164 740 q 392 863 299 839 q 599 889 486 888 l 599 986 l 690 986 l 690 889 q 897 863 803 888 q 1058 790 990 839 q 1162 665 1125 740 q 1199 486 1199 590 q 1162 307 1199 382 q 1058 183 1125 232 q 897 109 990 133 q 690 83 803 85 l 690 -14 l 599 -14 l 599 83 m 599 806 q 429 785 506 804 q 299 727 353 765 q 215 629 244 689 q 185 486 185 569 q 215 343 185 403 q 299 245 244 283 q 429 188 353 207 q 599 167 506 168 l 599 806 m 690 167 q 860 188 783 168 q 990 245 936 207 q 1074 343 1044 283 q 1104 486 1104 403 q 1074 629 1104 569 q 990 727 1044 689 q 860 785 936 765 q 690 806 783 804 l 690 167 z "},"Х":{"ha":883,"x_min":28,"x_max":856,"o":"m 389 506 l 57 972 l 163 972 l 442 581 l 721 972 l 826 972 l 494 506 l 856 0 l 750 0 l 442 432 l 133 0 l 28 0 l 389 506 z "},"Ц":{"ha":1071,"x_min":139,"x_max":1022,"o":"m 931 0 l 139 0 l 139 972 l 231 972 l 231 83 l 790 83 l 790 972 l 882 972 l 882 83 l 1022 83 l 1022 -236 l 931 -236 l 931 0 z "},"Ч":{"ha":972,"x_min":125,"x_max":833,"o":"m 742 338 l 528 338 q 222 423 319 338 q 125 703 125 508 l 125 972 l 217 972 l 217 703 q 292 485 217 550 q 528 421 367 421 l 742 421 l 742 972 l 833 972 l 833 0 l 742 0 l 742 338 z "},"Ш":{"ha":1364,"x_min":139,"x_max":1225,"o":"m 139 972 l 231 972 l 231 83 l 636 83 l 636 972 l 728 972 l 728 83 l 1133 83 l 1133 972 l 1225 972 l 1225 0 l 139 0 l 139 972 z "},"Щ":{"ha":1414,"x_min":139,"x_max":1365,"o":"m 1274 0 l 139 0 l 139 972 l 231 972 l 231 83 l 636 83 l 636 972 l 728 972 l 728 83 l 1133 83 l 1133 972 l 1225 972 l 1225 83 l 1365 83 l 1365 -236 l 1274 -236 l 1274 0 z "},"Ъ":{"ha":1114,"x_min":0,"x_max":1017,"o":"m 275 889 l 0 889 l 0 972 l 367 972 l 367 631 l 642 631 q 922 549 826 631 q 1017 315 1017 467 q 922 82 1017 164 q 642 0 826 0 l 275 0 l 275 889 m 642 83 q 850 142 778 83 q 922 315 922 200 q 850 489 922 431 q 642 547 778 547 l 367 547 l 367 83 l 642 83 z "},"Ы":{"ha":1257,"x_min":139,"x_max":1118,"o":"m 139 972 l 231 972 l 231 631 l 481 631 q 760 549 665 631 q 856 315 856 467 q 760 82 856 164 q 481 0 665 0 l 139 0 l 139 972 m 481 83 q 689 142 617 83 q 761 315 761 200 q 689 489 761 431 q 481 547 617 547 l 231 547 l 231 83 l 481 83 m 1026 972 l 1118 972 l 1118 0 l 1026 0 l 1026 972 z "},"Ь":{"ha":978,"x_min":139,"x_max":881,"o":"m 139 972 l 231 972 l 231 631 l 506 631 q 785 549 690 631 q 881 315 881 467 q 785 82 881 164 q 506 0 690 0 l 139 0 l 139 972 m 506 83 q 714 142 642 83 q 786 315 786 200 q 714 489 786 431 q 506 547 642 547 l 231 547 l 231 83 l 506 83 z "},"Э":{"ha":1129,"x_min":90,"x_max":1032,"o":"m 554 -14 q 394 8 464 -14 q 274 67 325 31 q 188 147 222 103 q 131 235 153 192 q 100 317 110 279 q 90 379 90 356 l 182 379 q 188 351 182 375 q 208 292 193 326 q 250 219 224 258 q 318 148 276 181 q 417 94 360 115 q 554 72 475 72 q 731 111 658 72 q 849 208 804 150 q 915 330 894 265 q 936 444 936 394 l 506 444 l 506 528 l 936 528 q 916 642 936 578 q 850 764 896 707 q 731 860 804 821 q 554 900 658 900 q 421 879 478 900 q 322 826 364 858 q 253 755 281 793 q 210 683 226 717 q 188 624 194 649 q 182 593 182 599 l 90 593 q 100 655 90 617 q 131 737 110 693 q 188 825 153 781 q 274 906 222 869 q 394 964 325 942 q 554 986 464 986 q 753 949 664 986 q 903 844 842 911 q 999 686 965 778 q 1032 486 1032 594 q 999 286 1032 378 q 903 128 965 194 q 753 24 842 61 q 554 -14 664 -14 z "},"Ю":{"ha":1383,"x_min":139,"x_max":1286,"o":"m 850 -14 q 649 31 731 -14 q 516 142 567 75 q 442 290 465 210 q 417 444 418 371 l 231 444 l 231 0 l 139 0 l 139 972 l 231 972 l 231 528 l 418 528 q 428 626 418 574 q 461 728 439 678 q 517 826 483 779 q 599 908 551 872 q 708 965 646 943 q 850 986 771 986 q 1042 946 960 986 q 1178 837 1124 906 q 1259 677 1232 768 q 1286 486 1286 586 q 1259 294 1286 385 q 1178 135 1232 204 q 1042 26 1124 67 q 850 -14 960 -14 m 850 72 q 1005 107 940 72 q 1111 199 1069 142 q 1172 331 1153 256 q 1192 486 1192 406 q 1172 641 1192 567 q 1111 773 1153 715 q 1005 865 1069 831 q 850 900 940 900 q 695 865 760 900 q 590 773 631 831 q 529 641 549 715 q 510 486 510 567 q 529 331 510 406 q 590 199 549 256 q 695 107 631 142 q 850 72 760 72 z "},"Я":{"ha":957,"x_min":90,"x_max":818,"o":"m 315 378 q 274 390 308 378 q 203 435 240 403 q 135 524 165 467 q 106 668 106 581 q 128 789 106 733 q 193 885 151 844 q 293 949 235 926 q 422 972 351 972 l 818 972 l 818 0 l 726 0 l 726 363 l 410 363 l 194 0 l 90 0 l 315 378 m 726 446 l 726 889 l 422 889 q 334 872 375 889 q 263 824 293 854 q 217 754 233 794 q 200 667 200 714 q 215 579 200 619 q 258 509 231 539 q 325 463 286 479 q 411 446 364 446 l 726 446 z "},"а":{"ha":876,"x_min":83,"x_max":849,"o":"m 403 -14 q 280 -3 338 -14 q 178 33 222 8 q 109 94 135 57 q 83 186 83 132 q 109 277 83 239 q 178 340 135 315 q 278 377 221 365 q 397 389 335 389 q 506 378 458 389 q 586 353 553 367 q 654 318 625 338 l 654 443 q 636 519 654 486 q 588 572 618 551 q 517 603 557 593 q 433 614 476 614 q 346 603 388 614 q 273 576 304 593 q 224 534 242 558 q 206 482 206 510 l 119 482 q 140 557 121 519 q 197 625 158 594 q 293 675 235 656 q 431 694 351 694 q 548 680 492 694 q 647 634 604 665 q 715 556 689 603 q 740 443 740 508 l 740 156 q 756 86 740 106 q 807 67 771 67 q 839 71 828 67 q 849 75 844 72 l 849 0 q 835 -6 843 -3 q 793 -10 819 -10 q 726 3 751 -10 q 688 31 701 15 q 665 72 672 49 l 661 72 q 597 29 635 47 q 517 -1 565 13 q 403 -14 468 -14 m 414 67 q 518 78 474 67 q 592 105 563 90 q 638 131 622 119 q 654 144 653 143 l 654 240 q 638 253 653 242 q 592 276 622 264 q 518 299 563 289 q 414 308 474 308 q 324 302 368 308 q 247 282 281 296 q 192 244 213 268 q 172 186 172 221 q 192 128 172 151 q 247 92 213 106 q 324 72 281 78 q 414 67 368 67 z "},"б":{"ha":893,"x_min":90,"x_max":810,"o":"m 458 -14 q 307 17 375 -14 q 191 102 239 47 q 117 233 143 157 q 90 403 90 310 l 90 461 q 113 624 90 549 q 183 755 136 700 q 301 842 231 810 q 465 874 371 874 q 649 972 649 874 l 738 972 q 725 903 738 936 q 683 846 713 871 q 603 806 653 821 q 479 790 554 790 q 330 760 389 790 q 235 682 271 729 q 186 579 200 635 q 172 472 172 524 l 176 472 q 238 553 197 517 q 330 608 272 583 q 476 633 388 633 q 612 609 550 633 q 717 542 674 585 q 785 440 761 500 q 810 310 810 381 q 785 179 810 239 q 714 77 760 119 q 603 10 668 35 q 458 -14 539 -14 m 460 69 q 569 88 521 69 q 651 140 618 107 q 703 216 685 172 q 721 310 721 260 q 703 403 721 360 q 651 480 685 447 q 569 531 618 513 q 460 550 521 550 q 358 531 406 550 q 274 481 310 513 q 219 405 239 449 q 199 310 199 361 q 219 215 199 258 q 274 138 239 171 q 358 88 310 106 q 460 69 406 69 z "},"в":{"ha":836,"x_min":118,"x_max":746,"o":"m 118 681 l 457 681 q 636 636 569 681 q 703 500 703 592 q 686 425 703 453 q 650 382 669 397 q 597 357 626 364 l 597 353 q 671 326 638 346 q 722 277 699 310 q 746 188 746 244 q 677 44 746 89 q 475 0 608 0 l 118 0 l 118 681 m 475 81 q 614 107 568 81 q 660 193 660 133 q 478 306 660 306 l 204 306 l 204 81 l 475 81 m 469 386 q 579 414 542 386 q 617 493 617 442 q 457 600 617 600 l 204 600 l 204 386 l 469 386 z "},"г":{"ha":667,"x_min":118,"x_max":646,"o":"m 118 681 l 646 681 l 646 600 l 204 600 l 204 0 l 118 0 l 118 681 z "},"д":{"ha":838,"x_min":7,"x_max":796,"o":"m 7 81 l 61 81 q 124 126 101 81 q 157 261 146 171 l 210 681 l 690 681 l 690 81 l 796 81 l 796 -174 l 710 -174 l 710 0 l 93 0 l 93 -174 l 7 -174 l 7 81 m 604 81 l 604 600 l 283 600 l 240 261 q 222 163 232 199 q 201 110 211 128 q 178 83 190 89 l 178 81 l 604 81 z "},"е":{"ha":908,"x_min":90,"x_max":818,"o":"m 457 -14 q 309 12 376 -14 q 193 85 242 38 q 117 197 144 132 q 90 340 90 261 q 117 484 90 419 q 193 596 144 549 q 308 669 242 643 q 454 694 375 694 q 600 669 533 694 q 715 596 667 643 q 791 484 764 549 q 818 340 818 419 q 817 319 818 329 q 815 303 817 310 q 814 288 814 294 l 183 288 q 195 242 183 276 q 237 168 207 207 q 320 99 267 129 q 457 69 374 69 q 560 85 518 69 q 629 121 601 101 q 681 172 661 143 l 785 172 q 714 79 760 119 q 613 15 675 43 q 457 -14 550 -14 m 728 368 q 712 443 728 401 q 663 522 696 485 q 578 585 629 560 q 454 611 526 611 q 331 585 382 611 q 246 522 279 560 q 197 443 213 485 q 181 368 181 401 l 728 368 z "},"ж":{"ha":1117,"x_min":0,"x_max":1117,"o":"m 404 344 l 28 681 l 143 681 l 515 346 l 515 681 l 601 681 l 601 346 l 974 681 l 1089 681 l 713 344 l 1117 0 l 1001 0 l 601 340 l 601 0 l 515 0 l 515 340 l 115 0 l 0 0 l 404 344 z "},"з":{"ha":796,"x_min":76,"x_max":713,"o":"m 394 -14 q 272 -4 329 -14 q 170 30 214 6 q 101 94 126 54 q 76 192 76 133 l 76 210 l 163 210 l 163 192 q 224 94 163 121 q 394 67 286 67 q 565 94 503 67 q 626 186 626 122 q 566 281 626 253 q 399 308 506 308 l 281 308 l 281 389 l 413 389 q 608 501 608 393 q 554 585 608 556 q 392 614 500 614 q 228 582 283 614 q 174 496 174 550 l 174 490 l 88 490 l 88 496 q 110 583 88 546 q 174 645 133 621 q 270 682 214 669 q 392 694 326 694 q 513 683 457 694 q 608 649 568 672 q 672 589 649 625 q 694 504 694 553 q 674 428 694 457 q 631 383 654 400 q 568 356 603 364 l 568 353 q 640 321 608 342 q 690 270 668 301 q 713 186 713 239 q 688 92 713 131 q 619 31 663 54 q 517 -3 575 7 q 394 -14 460 -14 z "},"и":{"ha":871,"x_min":118,"x_max":753,"o":"m 118 681 l 203 681 l 203 92 l 206 92 l 632 681 l 753 681 l 753 0 l 668 0 l 668 589 l 665 589 l 239 0 l 118 0 l 118 681 z "},"й":{"ha":871,"x_min":118,"x_max":753,"o":"m 118 681 l 203 681 l 203 92 l 206 92 l 632 681 l 753 681 l 753 0 l 668 0 l 668 589 l 665 589 l 239 0 l 118 0 l 118 681 m 439 774 q 306 808 356 774 q 257 914 257 843 l 257 918 l 335 918 l 335 915 q 360 864 335 885 q 439 843 386 843 q 517 864 492 843 q 543 915 543 885 l 543 918 l 621 918 l 621 914 q 572 808 621 843 q 439 774 522 774 z "},"к":{"ha":742,"x_min":118,"x_max":742,"o":"m 118 681 l 204 681 l 204 346 l 599 681 l 714 681 l 319 344 l 742 0 l 626 0 l 204 340 l 204 0 l 118 0 l 118 681 z "},"л":{"ha":829,"x_min":7,"x_max":711,"o":"m 58 -14 q 22 -10 36 -14 q 7 -4 14 -7 l 7 76 q 18 72 11 74 q 51 69 32 69 q 96 84 78 69 q 126 125 114 99 q 145 187 138 151 q 160 263 153 222 l 224 681 l 711 681 l 711 0 l 625 0 l 625 600 l 296 600 l 244 263 q 181 52 222 118 q 58 -14 140 -14 z "},"м":{"ha":992,"x_min":118,"x_max":874,"o":"m 118 681 l 251 681 l 494 250 l 497 250 l 740 681 l 874 681 l 874 0 l 788 0 l 788 585 l 785 585 l 554 183 l 438 183 l 207 585 l 204 585 l 204 0 l 118 0 l 118 681 z "},"н":{"ha":872,"x_min":118,"x_max":754,"o":"m 118 681 l 204 681 l 204 392 l 668 392 l 668 681 l 754 681 l 754 0 l 668 0 l 668 311 l 204 311 l 204 0 l 118 0 l 118 681 z "},"о":{"ha":908,"x_min":90,"x_max":818,"o":"m 454 -14 q 308 12 375 -14 q 193 85 242 38 q 117 197 144 132 q 90 340 90 261 q 117 484 90 419 q 193 596 144 549 q 308 669 242 643 q 454 694 375 694 q 600 669 533 694 q 715 596 667 643 q 791 484 764 549 q 818 340 818 419 q 791 197 818 261 q 715 85 764 132 q 600 12 667 38 q 454 -14 533 -14 m 454 69 q 567 90 517 69 q 654 148 618 111 q 710 234 690 185 q 729 340 729 283 q 710 447 729 397 q 654 533 690 496 q 567 590 618 569 q 454 611 517 611 q 341 590 392 611 q 254 533 290 569 q 199 447 218 496 q 179 340 179 397 q 199 234 179 283 q 254 148 218 185 q 341 90 290 111 q 454 69 392 69 z "},"п":{"ha":857,"x_min":118,"x_max":739,"o":"m 118 681 l 739 681 l 739 0 l 653 0 l 653 600 l 204 600 l 204 0 l 118 0 l 118 681 z "},"р":{"ha":933,"x_min":118,"x_max":843,"o":"m 118 681 l 204 681 l 204 564 l 210 564 q 225 584 210 564 q 273 629 240 604 q 358 674 306 654 q 486 694 410 694 q 628 669 563 694 q 741 596 693 643 q 816 484 789 549 q 843 340 843 419 q 816 197 843 261 q 741 85 789 132 q 628 12 693 38 q 486 -14 563 -14 q 358 6 410 -14 q 273 51 306 26 q 225 97 240 76 q 210 117 210 117 l 204 117 l 204 -278 l 118 -278 l 118 681 m 479 69 q 592 90 542 69 q 679 148 643 111 q 735 234 715 185 q 754 340 754 283 q 735 447 754 397 q 679 533 715 496 q 592 590 643 569 q 479 611 542 611 q 368 591 418 611 q 281 535 318 571 q 224 450 244 500 q 204 340 204 400 q 224 231 204 281 q 281 145 244 181 q 368 90 318 110 q 479 69 418 69 z "},"с":{"ha":890,"x_min":90,"x_max":807,"o":"m 451 -14 q 306 12 372 -14 q 192 85 240 38 q 117 197 144 132 q 90 340 90 261 q 117 484 90 419 q 192 596 144 549 q 306 669 240 643 q 451 694 372 694 q 615 662 547 694 q 724 584 682 629 q 787 492 767 539 q 807 417 807 446 l 717 417 q 703 458 717 426 q 660 524 690 490 q 578 585 629 558 q 451 611 526 611 q 339 590 389 611 q 253 533 289 569 q 199 447 218 496 q 179 340 179 397 q 199 234 179 283 q 253 148 218 185 q 339 90 289 111 q 451 69 389 69 q 578 96 526 69 q 660 156 629 122 q 703 222 690 190 q 717 264 717 253 l 807 264 q 787 188 807 235 q 724 97 767 142 q 615 19 682 51 q 451 -14 547 -14 z "},"т":{"ha":689,"x_min":21,"x_max":668,"o":"m 301 600 l 21 600 l 21 681 l 668 681 l 668 600 l 388 600 l 388 0 l 301 0 l 301 600 z "},"у":{"ha":743,"x_min":0,"x_max":743,"o":"m 167 -292 q 108 -285 132 -292 q 86 -278 96 -282 l 86 -197 q 107 -204 94 -201 q 167 -211 131 -211 q 247 -167 213 -211 q 322 -35 282 -122 l 328 -22 l 0 681 l 93 681 l 372 78 l 376 78 l 651 681 l 743 681 l 414 -35 q 359 -142 386 -94 q 303 -224 332 -190 q 240 -274 274 -257 q 167 -292 207 -292 z "},"ф":{"ha":1053,"x_min":90,"x_max":963,"o":"m 483 -14 q 326 13 397 -12 q 201 84 254 39 q 119 194 149 129 q 90 340 90 258 q 119 486 90 421 q 201 597 149 551 q 326 667 254 642 q 483 694 397 692 l 483 972 l 569 972 l 569 694 q 726 667 654 692 q 851 597 799 642 q 933 486 904 551 q 963 340 963 421 q 933 194 963 258 q 851 84 904 129 q 726 13 799 39 q 569 -14 654 -12 l 569 -278 l 483 -278 l 483 -14 m 483 611 q 258 531 336 606 q 179 340 179 456 q 258 150 179 225 q 483 69 336 75 l 483 611 m 569 69 q 795 150 717 75 q 874 340 874 225 q 795 531 874 456 q 569 611 717 606 l 569 69 z "},"х":{"ha":689,"x_min":7,"x_max":682,"o":"m 294 358 l 36 681 l 135 681 l 344 419 l 554 681 l 653 681 l 394 358 l 682 0 l 583 0 l 344 297 l 106 0 l 7 0 l 294 358 z "},"ц":{"ha":863,"x_min":118,"x_max":821,"o":"m 735 0 l 118 0 l 118 681 l 204 681 l 204 81 l 629 81 l 629 681 l 715 681 l 715 81 l 821 81 l 821 -174 l 735 -174 l 735 0 z "},"ч":{"ha":799,"x_min":104,"x_max":681,"o":"m 594 221 l 403 221 q 180 283 256 221 q 104 474 104 346 l 104 681 l 190 681 l 190 474 q 240 345 190 389 q 403 301 290 301 l 594 301 l 594 681 l 681 681 l 681 0 l 594 0 l 594 221 z "},"ш":{"ha":1128,"x_min":118,"x_max":1010,"o":"m 118 681 l 204 681 l 204 81 l 521 81 l 521 681 l 607 681 l 607 81 l 924 81 l 924 681 l 1010 681 l 1010 0 l 118 0 l 118 681 z "},"щ":{"ha":1157,"x_min":118,"x_max":1115,"o":"m 1029 0 l 118 0 l 118 681 l 204 681 l 204 81 l 521 81 l 521 681 l 607 681 l 607 81 l 924 81 l 924 681 l 1010 681 l 1010 81 l 1115 81 l 1115 -174 l 1029 -174 l 1029 0 z "},"ъ":{"ha":853,"x_min":0,"x_max":769,"o":"m 214 600 l 0 600 l 0 681 l 300 681 l 300 444 l 475 444 q 694 389 618 444 q 769 222 769 333 q 694 56 769 111 q 475 0 618 0 l 214 0 l 214 600 m 475 81 q 633 115 586 81 q 681 222 681 150 q 633 329 681 294 q 475 364 586 364 l 300 364 l 300 81 l 475 81 z "},"ы":{"ha":994,"x_min":118,"x_max":876,"o":"m 118 681 l 204 681 l 204 444 l 358 444 q 577 389 501 444 q 653 222 653 333 q 577 56 653 111 q 358 0 501 0 l 118 0 l 118 681 m 358 81 q 517 115 469 81 q 564 222 564 150 q 517 329 564 294 q 358 364 469 364 l 204 364 l 204 81 l 358 81 m 790 681 l 876 681 l 876 0 l 790 0 l 790 681 z "},"ь":{"ha":757,"x_min":118,"x_max":674,"o":"m 118 681 l 204 681 l 204 444 l 379 444 q 598 389 522 444 q 674 222 674 333 q 598 56 674 111 q 379 0 522 0 l 118 0 l 118 681 m 379 81 q 538 115 490 81 q 585 222 585 150 q 538 329 585 294 q 379 364 490 364 l 204 364 l 204 81 l 379 81 z "},"э":{"ha":890,"x_min":83,"x_max":800,"o":"m 439 -14 q 276 19 343 -14 q 166 97 208 51 q 103 188 124 142 q 83 264 83 235 l 174 264 q 187 222 174 253 q 231 156 200 190 q 313 96 261 122 q 439 69 364 69 q 566 97 514 69 q 650 161 618 124 q 696 238 682 199 q 710 299 710 276 l 407 299 l 407 379 l 710 379 q 694 445 710 406 q 647 522 679 485 q 563 585 615 558 q 439 611 511 611 q 313 585 364 611 q 231 524 261 558 q 187 458 200 490 q 174 417 174 426 l 83 417 q 103 492 83 446 q 166 584 124 539 q 276 662 208 629 q 439 694 343 694 q 584 669 518 694 q 698 596 650 643 q 773 484 746 549 q 800 340 800 419 q 773 197 800 261 q 698 85 746 132 q 584 12 650 38 q 439 -14 518 -14 z "},"ю":{"ha":1100,"x_min":118,"x_max":1010,"o":"m 685 -14 q 578 -1 625 -14 q 497 35 532 13 q 438 85 463 57 q 397 143 414 114 q 349 301 358 213 l 204 301 l 204 0 l 118 0 l 118 681 l 204 681 l 204 382 l 349 382 q 397 538 358 469 q 438 595 414 567 q 497 645 463 624 q 578 681 532 667 q 685 694 625 694 q 815 668 756 694 q 917 595 874 642 q 985 483 961 549 q 1010 340 1010 418 q 985 197 1010 263 q 917 85 961 132 q 815 13 874 39 q 685 -14 756 -14 m 678 69 q 783 91 738 69 q 860 149 829 113 q 906 234 890 185 q 921 340 921 283 q 906 446 921 396 q 860 532 890 496 q 783 590 829 568 q 678 611 738 611 q 572 590 618 611 q 496 532 526 568 q 450 446 465 496 q 435 340 435 396 q 450 234 435 283 q 496 149 465 185 q 572 91 526 113 q 678 69 618 69 z "},"я":{"ha":785,"x_min":90,"x_max":667,"o":"m 251 261 q 175 300 208 275 q 124 361 147 322 q 100 464 100 400 q 172 625 100 569 q 369 681 243 681 l 667 681 l 667 0 l 581 0 l 581 247 l 340 247 l 186 0 l 90 0 l 251 261 m 581 328 l 581 600 l 369 600 q 233 565 276 600 q 189 464 189 529 q 233 363 189 399 q 364 328 276 328 l 581 328 z "},"ё":{"ha":908,"x_min":90,"x_max":818,"o":"m 457 -14 q 309 12 376 -14 q 193 85 242 38 q 117 197 144 132 q 90 340 90 261 q 117 484 90 419 q 193 596 144 549 q 308 669 242 643 q 454 694 375 694 q 600 669 533 694 q 715 596 667 643 q 791 484 764 549 q 818 340 818 419 q 817 319 818 329 q 815 303 817 310 q 814 288 814 294 l 183 288 q 195 242 183 276 q 237 168 207 207 q 320 99 267 129 q 457 69 374 69 q 560 85 518 69 q 629 121 601 101 q 681 172 661 143 l 785 172 q 714 79 760 119 q 613 15 675 43 q 457 -14 550 -14 m 728 368 q 712 443 728 401 q 663 522 696 485 q 578 585 629 560 q 454 611 526 611 q 331 585 382 611 q 246 522 279 560 q 197 443 213 485 q 181 368 181 401 l 728 368 m 329 813 q 288 827 303 813 q 272 865 272 842 q 288 903 272 889 q 329 918 303 918 q 371 903 356 918 q 386 865 386 889 q 371 827 386 842 q 329 813 356 813 m 582 813 q 540 827 556 813 q 525 865 525 842 q 540 903 525 889 q 582 918 556 918 q 624 903 608 918 q 639 865 639 889 q 624 827 639 842 q 582 813 608 813 z "},"–":{"ha":929,"x_min":69,"x_max":860,"o":"m 69 406 l 860 406 l 860 325 l 69 325 l 69 406 z "},"—":{"ha":1197,"x_min":69,"x_max":1128,"o":"m 69 406 l 1128 406 l 1128 325 l 69 325 l 69 406 z "},"“":{"ha":471,"x_min":69,"x_max":401,"o":"m 129 706 q 87 722 103 706 q 69 775 71 738 q 92 930 69 874 q 136 986 114 986 l 136 851 q 144 824 136 831 q 163 813 153 818 q 181 799 172 808 q 189 763 189 789 q 173 722 189 738 q 129 706 157 706 m 342 706 q 299 722 315 706 q 282 775 283 738 q 304 930 282 874 q 349 986 326 986 l 349 851 q 357 824 349 831 q 375 813 365 818 q 393 799 385 808 q 401 763 401 789 q 385 722 401 738 q 342 706 369 706 z "},"”":{"ha":471,"x_min":69,"x_max":401,"o":"m 122 840 q 114 867 122 861 q 96 878 106 874 q 78 892 86 883 q 69 929 69 901 q 85 970 69 954 q 129 986 101 986 q 172 970 156 986 q 189 917 188 954 q 167 762 189 818 q 122 706 144 706 l 122 840 m 335 840 q 326 867 335 861 q 308 878 318 874 q 290 892 299 883 q 282 929 282 901 q 298 970 282 954 q 342 986 314 986 q 384 970 368 986 q 401 917 400 954 q 379 762 401 818 q 335 706 357 706 l 335 840 z "},"„":{"ha":471,"x_min":69,"x_max":401,"o":"m 122 -46 q 114 -19 122 -25 q 96 -8 106 -12 q 78 6 86 -3 q 69 43 69 15 q 85 84 69 68 q 129 100 101 100 q 172 84 156 100 q 189 31 188 68 q 167 -124 189 -68 q 122 -181 144 -181 l 122 -46 m 335 -46 q 326 -19 335 -25 q 308 -8 318 -12 q 290 6 299 -3 q 282 43 282 15 q 298 84 282 68 q 342 100 314 100 q 384 84 368 100 q 401 31 400 68 q 379 -124 401 -68 q 335 -181 357 -181 l 335 -46 z "},"…":{"ha":761,"x_min":69,"x_max":692,"o":"m 129 -14 q 86 1 103 -14 q 69 43 69 17 q 86 85 69 69 q 129 100 103 100 q 172 85 156 100 q 189 43 189 69 q 172 1 189 17 q 129 -14 156 -14 m 381 -14 q 338 1 354 -14 q 321 43 321 17 q 338 85 321 69 q 381 100 354 100 q 424 85 407 100 q 440 43 440 69 q 424 1 440 17 q 381 -14 407 -14 m 632 -14 q 589 1 606 -14 q 572 43 572 17 q 589 85 572 69 q 632 100 606 100 q 675 85 658 100 q 692 43 692 69 q 675 1 692 17 q 632 -14 658 -14 z "},"€":{"ha":1189,"x_min":42,"x_max":1099,"o":"m 635 -14 q 500 1 560 -14 q 394 42 440 17 q 313 101 347 68 q 253 168 278 133 q 171 350 194 247 l 42 350 l 42 431 l 160 431 q 158 444 158 436 q 157 462 157 451 q 157 486 157 472 q 157 509 157 499 q 158 526 157 519 q 160 542 158 535 l 42 542 l 42 622 l 171 622 q 253 804 194 724 q 313 870 278 838 q 394 928 347 903 q 500 970 440 954 q 635 986 560 986 q 794 964 725 986 q 914 906 863 942 q 1001 826 965 871 q 1058 738 1036 782 q 1089 656 1079 694 q 1099 593 1099 617 l 1007 593 q 1001 624 1007 599 q 978 683 994 649 q 935 755 963 717 q 867 826 908 793 q 768 879 826 858 q 633 900 710 900 q 501 879 558 900 q 404 828 444 858 q 338 761 364 797 q 296 694 311 725 q 274 643 281 664 q 268 622 268 622 l 604 622 l 604 542 l 254 542 q 253 524 253 533 q 251 506 251 515 q 251 486 251 496 q 251 467 251 476 q 253 449 251 457 q 254 431 253 439 l 604 431 l 604 350 l 269 350 q 338 211 292 272 q 385 160 357 185 q 449 115 413 135 q 531 84 485 96 q 635 72 578 72 q 771 94 713 72 q 870 148 829 115 q 938 219 911 181 q 980 292 964 258 q 1001 351 996 326 q 1007 379 1007 375 l 1099 379 q 1089 316 1099 354 q 1058 234 1079 278 q 1001 146 1036 190 q 914 66 965 101 q 793 8 863 31 q 635 -14 724 -14 z "},"₽":{"ha":953,"x_min":56,"x_max":856,"o":"m 182 171 l 56 171 l 56 254 l 182 254 l 182 378 l 56 378 l 56 461 l 182 461 l 182 972 l 481 972 q 757 897 658 972 q 856 675 856 822 q 757 452 856 526 q 481 378 658 378 l 274 378 l 274 254 l 618 254 l 618 171 l 274 171 l 274 0 l 182 0 l 182 171 m 481 461 q 685 513 608 461 q 761 675 761 564 q 685 837 761 785 q 481 889 610 889 l 274 889 l 274 461 l 481 461 z "}}}
